<svg xmlns="http://www.w3.org/2000/svg" width="1024" height="1024" viewBox="0 0 1024 1024">
  <!-- cairn stacked-stones mark, centered on a 1024² transparent canvas with padding.
       Source paths from cairn-logo.svg (viewBox 223.78×247.34), scaled ~3.39 and centered. -->
  <g transform="translate(132.7,92.75) scale(3.39)">
    <path fill="#25272f" d="M51.79,155.4c11.64-1,28.37,1.8,40.45,2.46,21.56,1.18,43.12,1.92,64.61,3.34,10.9.73,33.01.49,41.31,6.66,4.13,3.07,18.8,19.53,21.94,24.03,1.57,2.25,3.47,7.67,3.67,10.38.52,7.09-11.89,29.65-21.11,29.38-29.43,3.37-59,5.88-88.43,8.83-19.17,1.92-39.6,5.49-58.64,6.65-7.23.44-14.37.47-20.77-3.2-5.25-3.01-24.89-22.77-29.19-28.1-19.97-24.77,18.64-42.03,32.89-56.4,3.67-2.12,9.06-3.67,13.28-4.03Z"/>
    <path fill="#4e5159" d="M143.73,72.79c11.11-.84,17.33-.48,25.13,7.79,4.74,5.03,21.03,23.6,23.1,28.86,2.45,6.25,2.57,12.58-.11,18.8-1.78,4.15-9.43,17.63-12.72,19.93-7.83,5.47-20.53,2.2-29.61,1.71-10.9-.59-21.77-1.37-32.64-2-19.81-1.15-42.36-.89-61.78-3.51-3.56-.48-8.27-2.61-10.86-5.13-1.5-1.46-9.78-13.56-10.56-15.42-4.48-10.69,3.81-21.55,10.58-29.25,7.21-8.21,29.09-11.12,40.19-13.11,18.22-3.26,41.04-7.3,59.28-8.67Z"/>
    <path fill="#4c5edf" d="M100.42.17c3.97-.38,6.43-.12,10.27.67,10.27,2.1,26.31,6.86,36.35,10.29,5.22,1.78,8.65,2.82,11.17,8.15,1.94,4.09,4.29,22.78,4.24,27.74-.12,9.57-6.83,13.07-15.12,14.73-18.75,3.75-38.85,4.76-57.73,8.22-11.8.89-31.4-13.38-32.95-25.07-1.68-12.6,6.9-18.45,14.92-26.28C80.18,10.2,87.77,1.37,100.42.17Z"/>
  </g>
</svg>
